<?xml version="1.0" encoding="utf-8"?>
<!-- Generator: Adobe Illustrator 24.1.0, SVG Export Plug-In . SVG Version: 6.00 Build 0)  -->
<svg version="1.1" id="Livello_1" xmlns="http://www.w3.org/2000/svg" xmlns:xlink="http://www.w3.org/1999/xlink" x="0px" y="0px"
	 viewBox="0 0 336 84" style="enable-background:new 0 0 336 84;" xml:space="preserve">
<style type="text/css">
	.st0{fill:#4D4D4D;}
	.st1{fill:#E17726;stroke:#E17726;stroke-linecap:round;stroke-linejoin:round;}
	.st2{fill:#E27625;stroke:#E27625;stroke-linecap:round;stroke-linejoin:round;}
	.st3{fill:#D5BFB2;stroke:#D5BFB2;stroke-linecap:round;stroke-linejoin:round;}
	.st4{fill:#233447;stroke:#233447;stroke-linecap:round;stroke-linejoin:round;}
	.st5{fill:#CC6228;stroke:#CC6228;stroke-linecap:round;stroke-linejoin:round;}
	.st6{fill:#E27525;stroke:#E27525;stroke-linecap:round;stroke-linejoin:round;}
	.st7{fill:#F5841F;stroke:#F5841F;stroke-linecap:round;stroke-linejoin:round;}
	.st8{fill:#C0AC9D;stroke:#C0AC9D;stroke-linecap:round;stroke-linejoin:round;}
	.st9{fill:#161616;stroke:#161616;stroke-linecap:round;stroke-linejoin:round;}
	.st10{fill:#763E1A;stroke:#763E1A;stroke-linecap:round;stroke-linejoin:round;}
</style>
<path class="st0" d="M296.2,41.4c-1.7-1.1-3.6-2-5.4-3c-1.2-0.7-2.4-1.2-3.4-2.1c-1.7-1.4-1.4-4.2,0.4-5.4c2.6-1.7,6.9-0.8,7.3,2.8
	c0,0.1,0.1,0.1,0.2,0.1h3.9c0.1,0,0.2-0.1,0.2-0.2c-0.2-2.4-1.1-4.5-2.9-5.8c-1.6-1.2-3.5-1.9-5.5-1.9c-10.3,0-11.3,10.9-5.7,14.4
	c0.6,0.4,6.1,3.1,8,4.3c1.9,1.2,2.5,3.4,1.7,5.1c-0.8,1.6-2.7,2.7-4.7,2.5c-2.2-0.1-3.8-1.3-4.4-3.1c-0.1-0.3-0.2-1-0.2-1.2
	c0-0.1-0.1-0.2-0.2-0.2h-4.2c-0.1,0-0.2,0.1-0.2,0.2c0,3.1,0.8,4.8,2.8,6.3c2,1.5,4.1,2.1,6.3,2.1c5.8,0,8.8-3.3,9.4-6.7
	C300.2,46.4,299.2,43.4,296.2,41.4L296.2,41.4z M112.2,26.5h-3.9c-0.1,0-0.1,0-0.2,0.1l-3.5,11.5c0,0.1-0.1,0.1-0.2,0.1
	c-0.1,0-0.1-0.1-0.1-0.1l-3.5-11.5c0-0.1-0.1-0.1-0.2-0.1h-6.5c-0.1,0-0.1,0.1-0.2,0.2V56c0,0.1,0.1,0.2,0.2,0.2h4.2
	c0.1,0,0.1-0.1,0.2-0.2V33.7c0-0.2,0.3-0.2,0.3-0.1l3.5,11.5l0.3,0.8c0,0.1,0.1,0.1,0.2,0.1h3.2c0.1,0,0.1-0.1,0.2-0.1l0.3-0.8
	l3.5-11.5c0.1-0.2,0.3-0.1,0.3,0.1V56c0,0.1,0.1,0.2,0.2,0.2h4.2c0.1,0,0.2-0.1,0.2-0.2V26.7c0-0.1-0.1-0.2-0.2-0.2
	C114.7,26.5,112.2,26.5,112.2,26.5z M231.3,26.5c-0.1,0-0.1,0-0.2,0.1l-3.5,11.5c0,0.1-0.1,0.1-0.2,0.1c-0.1,0-0.1-0.1-0.1-0.1
	l-3.5-11.5c0-0.1-0.1-0.1-0.2-0.1h-6.4c-0.1,0-0.1,0.1-0.2,0.2V56c0,0.1,0.1,0.2,0.2,0.2h4.2c0.1,0,0.1-0.1,0.2-0.2V33.7
	c0-0.2,0.3-0.2,0.3-0.1l3.5,11.5l0.3,0.8c0,0.1,0.1,0.1,0.2,0.1h3.2c0.1,0,0.1-0.1,0.2-0.1l0.3-0.8l3.5-11.5
	c0.1-0.2,0.3-0.1,0.3,0.1V56c0,0.1,0.1,0.2,0.2,0.2h4.2c0.1,0,0.2-0.1,0.2-0.2V26.7c0-0.1-0.1-0.2-0.2-0.2L231.3,26.5L231.3,26.5z
	 M176.7,26.5h-20c-0.1,0-0.1,0.1-0.2,0.2v3.7c0,0.1,0.1,0.2,0.2,0.2h7.7V56c0,0.1,0.1,0.2,0.2,0.2h4.2c0.1,0,0.2-0.1,0.2-0.2V30.5
	h7.7c0.1,0,0.2-0.1,0.2-0.2v-3.7C176.8,26.6,176.8,26.5,176.7,26.5L176.7,26.5z M201.7,56.1h3.9c0.1,0,0.2-0.1,0.2-0.2l-8-29.4
	c0-0.1-0.1-0.1-0.2-0.1H192c-0.1,0-0.1,0-0.2,0.1l-8,29.4c0,0.1,0.1,0.2,0.2,0.2h3.9c0.1,0,0.1,0,0.2-0.1l2.3-8.6
	c0-0.1,0.1-0.1,0.2-0.1h8.5c0.1,0,0.1,0.1,0.2,0.1l2.3,8.6C201.5,56.1,201.6,56.1,201.7,56.1L201.7,56.1z M191.5,43.2l3.1-11.4
	c0.1-0.2,0.3-0.2,0.3,0l3.1,11.4c0,0.1-0.1,0.2-0.2,0.2h-6.2C191.6,43.4,191.5,43.3,191.5,43.2L191.5,43.2z M267.4,56.1h3.9
	c0.1,0,0.2-0.1,0.2-0.2l-8-29.4c0-0.1-0.1-0.1-0.2-0.1h-5.5c-0.1,0-0.1,0-0.2,0.1l-8,29.4c0,0.1,0,0.2,0.1,0.2c0,0,0,0,0,0h3.9
	c0.1,0,0.1-0.1,0.2-0.1l2.3-8.6c0-0.1,0.1-0.1,0.2-0.1h8.5c0.1,0,0.1,0.1,0.2,0.1l2.3,8.6C267.3,56.1,267.4,56.1,267.4,56.1z
	 M257.3,43.2l3.1-11.4c0-0.1,0.1-0.1,0.2-0.1c0.1,0,0.1,0.1,0.1,0.1l3.1,11.4c0,0.1-0.1,0.2-0.2,0.2h-6.2
	C257.4,43.4,257.3,43.3,257.3,43.2z M132,51.8v-9.1c0-0.1,0.1-0.2,0.2-0.2h11.3c0.1,0,0.2-0.1,0.2-0.2v-3.7c0-0.1-0.1-0.2-0.2-0.2
	h-11.3c-0.1,0-0.2-0.1-0.2-0.2v-7.8c0-0.1,0.1-0.2,0.2-0.2H145c0.1,0,0.2-0.1,0.2-0.2v-3.7c0-0.1-0.1-0.1-0.2-0.2h-17.4
	c-0.1,0-0.2,0.1-0.2,0.2V56c0,0.1,0.1,0.2,0.2,0.2h17.9c0.1,0,0.1-0.1,0.2-0.2v-3.9c0-0.1-0.1-0.2-0.2-0.2h-13.4
	C132.1,51.9,132,51.9,132,51.8L132,51.8z M335,55.9l-14.7-15.2c-0.1-0.1-0.1-0.1,0-0.2l13.2-13.7c0.1-0.1,0.1-0.1,0-0.2
	c0,0-0.1,0-0.1,0H328c-0.1,0-0.1,0-0.1,0.1l-11.2,11.6c-0.1,0.1-0.3,0-0.3-0.1V26.7c0-0.1-0.1-0.1-0.2-0.2H312
	c-0.1,0-0.2,0.1-0.2,0.2V56c0,0.1,0.1,0.2,0.2,0.2h4.2c0.1,0,0.2-0.1,0.2-0.2V43.1c0-0.1,0.2-0.2,0.3-0.1l12.7,13.1c0,0,0.1,0,0.1,0
	h5.4C335,56.1,335.1,55.9,335,55.9L335,55.9z"/>
<g>
	<path class="st1" d="M65.1,10.8l-25.7,19l4.8-11.2L65.1,10.8z"/>
	<g>
		<path class="st2" d="M5.9,10.8L31.4,30l-4.5-11.4L5.9,10.8z M55.9,54.9L49,65.4l14.6,4l4.2-14.3L55.9,54.9z M3.2,55.1l4.2,14.3
			l14.6-4l-6.8-10.5L3.2,55.1z"/>
		<path class="st2" d="M21.2,37.2l-4.1,6.1L31.6,44l-0.5-15.6L21.2,37.2z M49.9,37.2l-10.1-9L39.4,44l14.5-0.7L49.9,37.2z M22,65.4
			l8.8-4.2l-7.5-5.9L22,65.4z M40.3,61.1l8.7,4.2l-1.2-10.1L40.3,61.1z"/>
	</g>
	<path class="st3" d="M49,65.4l-8.7-4.2l0.7,5.7l-0.1,2.4L49,65.4z M22,65.4l8.1,3.9L30,66.8l0.7-5.7L22,65.4z"/>
	<path class="st4" d="M30.2,51.5L23,49.3l5.1-2.4L30.2,51.5z M40.8,51.5l2.1-4.5l5.2,2.4L40.8,51.5z"/>
	<path class="st5" d="M22,65.4l1.3-10.5l-8.1,0.2L22,65.4z M47.8,54.9L49,65.4l6.8-10.2L47.8,54.9z M53.9,43.4L39.4,44l1.3,7.4
		l2.1-4.5l5.2,2.4L53.9,43.4z M23,49.3l5.1-2.4l2.1,4.5l1.3-7.4l-14.5-0.7L23,49.3z"/>
	<path class="st6" d="M17.1,43.4l6.1,11.9L23,49.3L17.1,43.4z M48.1,49.3l-0.2,5.9l6.1-11.9L48.1,49.3z M31.6,44l-1.3,7.4l1.7,8.8
		l0.4-11.6L31.6,44z M39.4,44l-0.7,4.6l0.4,11.6l1.7-8.8L39.4,44z"/>
	<path class="st7" d="M40.8,51.5l-1.7,8.8l1.2,0.9l7.5-5.9l0.2-5.9L40.8,51.5z M23,49.3l0.2,5.9l7.5,5.9l1.2-0.9l-1.7-8.8L23,49.3z"
		/>
	<path class="st8" d="M40.9,69.2l0.1-2.4l-0.7-0.6h-9.7L30,66.8l0.1,2.4L22,65.4l2.8,2.3l5.8,4h9.9l5.8-4l2.8-2.3L40.9,69.2z"/>
	<path class="st9" d="M40.3,61.1l-1.2-0.9h-7.2l-1.2,0.9L30,66.8l0.6-0.6h9.7l0.7,0.6L40.3,61.1z"/>
	<path class="st10" d="M66.2,31l2.2-10.5l-3.2-9.8L40.3,29.2l9.5,8.1l13.5,3.9l3-3.5L65,36.8l2.1-1.9l-1.6-1.2l2.1-1.6L66.2,31z
		 M2.7,20.5L4.9,31l-1.4,1l2.1,1.6L4,34.9L6,36.8l-1.3,0.9l3,3.5l13.5-3.9l9.5-8.1L5.9,10.8L2.7,20.5z"/>
	<path class="st7" d="M63.3,41.2l-13.5-3.9l4.1,6.1l-6.1,11.9l8-0.1h12L63.3,41.2z M21.2,37.2L7.7,41.2l-4.5,14h12l8,0.1l-6.1-11.9
		L21.2,37.2z M39.4,44l0.9-14.9l3.9-10.6H26.8l3.9,10.6L31.6,44l0.3,4.7l0,11.5h7.2l0-11.5L39.4,44z"/>
</g>
</svg>
